<svg id="Livello_1" data-name="Livello 1" xmlns="http://www.w3.org/2000/svg" viewBox="0 0 1920 1920"><defs><style>.cls-1{fill:#263238;}.cls-2{fill:#c1eeff;}</style></defs><circle class="cls-1" cx="960" cy="960" r="960"/><path class="cls-2" d="M1260,1244.5l-105.82,105.82,170.06,170a57,57,0,0,0,80.68,0l25.13-25.13a57,57,0,0,0,0-80.68Z" transform="translate(0)"/><path class="cls-2" d="M430.69,1406.91a67.86,67.86,0,0,0,0,96l9.84,9.84a67.86,67.86,0,0,0,96,0l162.41-162.41L593.1,1244.5Z" transform="translate(0)"/><path class="cls-2" d="M711.68,1057.86,608.37,1170a13,13,0,0,0,.37,17.94l51.2,51.21a13,13,0,0,0,18.32,0l110-110a13,13,0,0,0-.39-18.68L730,1057.11A13,13,0,0,0,711.68,1057.86Z" transform="translate(0)"/><path class="cls-2" d="M704.25,1283.47l56.32,56.34a13,13,0,0,0,18,.31l118.15-110.4a13,13,0,0,0-.07-19L834,1152.94a13,13,0,0,0-18,.37l-111.8,111.8A13,13,0,0,0,704.25,1283.47Z" transform="translate(0)"/><path class="cls-2" d="M1299.9,643.53h0a18.37,18.37,0,0,1,0,26L1070.32,899.08a18.36,18.36,0,0,0-.44,25.53l58.95,63.08a18.36,18.36,0,0,0,26,.87l359.7-336.15a18.36,18.36,0,0,0,5.59-16.39l-27.85-169.68a18.37,18.37,0,0,0-15.15-15.15l-169.59-27.83A18.38,18.38,0,0,0,1291,429L962.88,785.23a18.37,18.37,0,0,0,.09,25l56.73,60.7a18.36,18.36,0,0,0,26.4.44l227.83-227.82A18.35,18.35,0,0,1,1299.9,643.53Z" transform="translate(0)"/><path class="cls-2" d="M1031.79,1148.05l-23-23-82.21-82.21-26-26-78.63-78.67-23.05-23L553.22,669.5a18.36,18.36,0,0,1,0-26l0,0a18.35,18.35,0,0,1,26,0L823.82,888.14l23,23,79.74,79.73,26,26,83.09,83.08,23,23L1171,1235.33a18.37,18.37,0,0,0,26,0l48.83-48.82a18.37,18.37,0,0,0,.43-25.53l-106.44-113.89-22.2-23.76-82.89-88.68-25.09-26.86-80.42-86-22.3-23.82-344.82-369a18.38,18.38,0,0,0-16.39-5.58L376.06,451.19a18.37,18.37,0,0,0-15.15,15.15L333.08,635.93a18.35,18.35,0,0,0,5.68,16.48l379.81,349.93,24,22.07,78.33,72.15,27,24.93,82.92,76.38,24,22.1,121.09,111.56a18.36,18.36,0,0,0,25.43-.52l43.72-43.73a18.38,18.38,0,0,0,0-26Z" transform="translate(0)"/></svg>