<svg id="Livello_1" data-name="Livello 1" xmlns="http://www.w3.org/2000/svg" viewBox="0 0 1920 1920"><defs><style>.cls-1{fill:#263238;}.cls-2{fill:#c1eeff;}</style></defs><circle class="cls-1" cx="960" cy="960" r="960"/><path id="Icon_material-security" data-name="Icon material-security" class="cls-2" d="M925.6,293.31,454.4,502.73a84.69,84.69,0,0,0-50.29,77.39V895.68c0,334.48,225.8,647.79,532.82,735.09a84.32,84.32,0,0,0,46.14,0c307-87.3,532.82-400.61,532.82-735.09V580.12a84.69,84.69,0,0,0-50.29-77.39L994.4,293.31A84.73,84.73,0,0,0,925.6,293.31Zm76.12,663.54h341.46a41.82,41.82,0,0,1,40.86,50.28c-42.86,211.92-180.41,397.82-365.73,480-27.45,12.17-58.32-8.27-58.32-38.3V999.17a41.72,41.72,0,0,0-41.72-41.72H569.36a41.72,41.72,0,0,1-41.72-41.72V632.5a41.73,41.73,0,0,1,24.78-38.13l348.92-155A41.72,41.72,0,0,1,960,477.49V915.13A41.72,41.72,0,0,0,1001.72,956.85Z" transform="translate(0)"/></svg>