<svg id="Livello_1" data-name="Livello 1" xmlns="http://www.w3.org/2000/svg" viewBox="0 0 1920 1920"><defs><style>.cls-1{fill:#263238;}.cls-2{fill:#c1eeff;}</style></defs><circle class="cls-1" cx="960" cy="960" r="960"/><path id="Icon_awesome-clipboard-check" data-name="Icon awesome-clipboard-check" class="cls-2" d="M1325.92,471.74H1122.63a162.63,162.63,0,0,0-325.26,0H594.08a122,122,0,0,0-122,122V1488.2a122,122,0,0,0,122,122h731.84a122,122,0,0,0,122-122V593.72A122,122,0,0,0,1325.92,471.74ZM960,410.75a60.85,60.85,0,1,1-.29,0Zm308,589L904.6,1360.12a30.53,30.53,0,0,1-43.18-.24h0L651.51,1148.19a30.53,30.53,0,0,1,.24-43.18v0l72.17-71.67a30.53,30.53,0,0,1,43.18.24l0,0L884,1151.49l269.36-267.33a30.53,30.53,0,0,1,43.18.24h0l71.67,72.17a30.54,30.54,0,0,1-.24,43.19l0,0Z" transform="translate(0 0)"/></svg>