<?xml version="1.0" encoding="utf-8"?>
<!-- Generator: Adobe Illustrator 22.0.1, SVG Export Plug-In . SVG Version: 6.00 Build 0)  -->
<svg version="1.1" id="Livello_1" xmlns="http://www.w3.org/2000/svg" xmlns:xlink="http://www.w3.org/1999/xlink" x="0px" y="0px"
	 viewBox="0 0 841.9 595.3" style="enable-background:new 0 0 841.9 595.3;" xml:space="preserve">
<style type="text/css">
	.st0{fill:#5EA443;}
	.st1{fill:#FFFFFF;}
</style>
<circle class="st0" cx="220.1" cy="297.1" r="82.7"/>
<circle class="st1" cx="201.1" cy="260.4" r="16.5"/>
<circle class="st1" cx="247.7" cy="304" r="16.5"/>
<circle class="st1" cx="247.7" cy="345.2" r="16.5"/>
<path d="M331.6,328v-77h22.1v77H331.6z"/>
<path d="M457.6,328v-47.1c0-5.9-4.8-10.7-10.7-10.7c-5.9,0-10.7,4.8-10.7,10.7V328h-22.1v-47.1c0-5.9-4.8-10.7-10.7-10.7
	c-5.9,0-10.7,4.8-10.7,10.7V328h-22.1v-77h17.8l0.7,1.8c4.8-3,10.5-4.7,16.2-4.7c8.2,0,15.9,3.2,21.7,9c5.8-5.7,13.5-9,21.7-9
	c16.9,0,30.7,13.8,30.7,30.7V328H457.6z"/>
<path d="M533.5,330.8c-22.8,0-41.4-18.6-41.4-41.4c0-22.8,18.6-41.4,41.4-41.4s41.4,18.6,41.4,41.4
	C574.9,312.3,556.3,330.8,533.5,330.8z M533.5,270.2c-10.6,0-19.3,8.6-19.3,19.3s8.7,19.3,19.3,19.3c10.6,0,19.3-8.7,19.3-19.3
	C552.8,279,544,270.2,533.5,270.2z"/>
<rect x="587.8" y="222.3" width="22.1" height="105.7"/>
<path d="M661,330.8c-21.7,0-39.3-18.6-39.3-41.4c0-22.8,17.6-41.4,39.3-41.4c8.6,0,16.8,2.9,23.6,8.2l1.9-5.4h17.9v77h-17.9
	l-1.9-5.4C677.8,327.9,669.6,330.8,661,330.8z M663.1,270.2c-10.6,0-19.3,8.6-19.3,19.3s8.6,19.3,19.3,19.3
	c10.6,0,19.3-8.7,19.3-19.3S673.7,270.2,663.1,270.2z"/>
<circle cx="342.6" cy="228.2" r="13.4"/>
<g>
	<g>
		<path d="M337.5,379.8h-5.9v-25h5.9V379.8z"/>
		<path d="M373,379.8v-14.2c0-3.2-2.6-5.8-5.8-5.8c-3.2,0-5.8,2.6-5.8,5.8v14.2h-5.9v-25h4.7l0.6,1.6c1.9-1.6,4.4-2.6,7.1-2.6
			c6.1,0,11,4.9,11,11v14.9H373z"/>
		<path d="M407.2,349.7c-2,0-3.6,1.6-3.6,3.6v1.5h2.8v5h-2.8v20h-5.9v-20h-2.8v-5h2.8v-1.5c0-5.2,4.3-9.5,9.5-9.5V349.7z"/>
		<path d="M447.6,367.3c0,7.4-6.1,13.5-13.5,13.5c-7.4,0-13.5-6-13.5-13.5c0-7.4,6-13.5,13.5-13.5
			C441.5,353.8,447.6,359.9,447.6,367.3z M441.7,367.3c0-4.1-3.4-7.6-7.6-7.6c-4.2,0-7.6,3.4-7.6,7.6c0,4.2,3.4,7.6,7.6,7.6
			C438.3,374.9,441.7,371.5,441.7,367.3z"/>
		<path d="M469.9,367.3v12.5H464v-25h4.7l0.9,2.4c1-1,2.3-1.8,3.7-2.4h4.1v4.9C473.3,359.7,469.9,363.1,469.9,367.3z"/>
		<path d="M529.4,363.6v16.2h-5.9v-15.5c0-2.5-2-4.6-4.6-4.6s-4.6,2-4.6,4.6v15.5h-5.9v-15.5c0-2.5-2-4.6-4.6-4.6
			c-2.5,0-4.6,2-4.6,4.6v15.5h-5.9v-25h4.7l0.4,1.1c1.6-1.3,3.7-2.1,6-2.1c3,0,5.7,1.4,7.5,3.5c1.8-2.1,4.5-3.5,7.5-3.5
			C525,353.8,529.4,358.2,529.4,363.6z"/>
		<path d="M567.5,379.8l-0.9-2.5c-2.3,2.2-5.3,3.5-8.6,3.5c-7,0-12.8-6-12.8-13.5c0-7.4,5.8-13.5,12.8-13.5c3.3,0,6.3,1.3,8.6,3.5
			l0.9-2.5h4.7v25H567.5z M566.3,367.3c0-4.2-3.4-7.6-7.6-7.6c-4.1,0-7.6,3.4-7.6,7.6c0,4.2,3.4,7.6,7.6,7.6
			C562.9,374.9,566.3,371.5,566.3,367.3z"/>
		<path d="M600.6,379.8h-4.3c-3.1-1.5-5.2-4.7-5.2-8.5v-11.5h-3.2v-5h3.2v-6.7h5.9v6.7h2.9v5H597v11.5c0,2,1.6,3.6,3.6,3.6V379.8z"
			/>
		<path d="M623.1,379.8h-5.9v-25h5.9V379.8z"/>
		<path d="M663.5,376.8c-2.7,2.4-6.4,3.9-10.5,3.9c-7.4,0-13.5-6-13.5-13.5c0-7.4,6-13.5,13.5-13.5c3.7,0,7.1,1.5,9.5,3.9l-4.2,4.2
			c-1.3-1.4-3.2-2.2-5.3-2.2c-4.2,0-7.6,3.4-7.6,7.6c0,4.2,3.4,7.6,7.6,7.6c2.4,0,4.6-0.7,6.2-1.9L663.5,376.8z"/>
		<path d="M699.6,379.8l-0.9-2.5c-2.3,2.2-5.3,3.5-8.6,3.5c-7,0-12.8-6-12.8-13.5c0-7.4,5.8-13.5,12.8-13.5c3.3,0,6.3,1.3,8.6,3.5
			l0.9-2.5h4.7v25H699.6z M698.5,367.3c0-4.2-3.4-7.6-7.6-7.6c-4.1,0-7.6,3.4-7.6,7.6c0,4.2,3.4,7.6,7.6,7.6
			C695.1,374.9,698.5,371.5,698.5,367.3z"/>
	</g>
	<circle cx="334.5" cy="347.3" r="3.5"/>
	<circle cx="620.2" cy="347.3" r="3.5"/>
</g>
<path class="st1" d="M185.5,372.2c9.6,4.4,20.1,7.1,31.2,7.5v-92.3h-31.2V372.2z"/>
</svg>
