<svg xmlns="http://www.w3.org/2000/svg" viewBox="0 0 454.372 58.712">
  <g id="Raggruppa_3" data-name="Raggruppa 3" transform="translate(-207.041 -862.099)">
    <path id="Tracciato_2" data-name="Tracciato 2" d="M236.4,920.813a29.355,29.355,0,1,1,20.194-50.661,1.5,1.5,0,1,1-2.063,2.176,26.357,26.357,0,1,0,.581,37.691,1.5,1.5,0,0,1,2.129,2.112A29.153,29.153,0,0,1,236.4,920.813Z" transform="translate(0 -0.002)" fill="#c1eeff"/>
    <path id="Tracciato_3" data-name="Tracciato 3" d="M404.638,920.813a1.5,1.5,0,0,1-1.5-1.5V898.349l-24.721-33.864a1.5,1.5,0,0,1,2.422-1.768l25.3,34.654v21.942A1.5,1.5,0,0,1,404.638,920.813Z" transform="translate(-119.787 -0.002)" fill="#c1eeff"/>
    <path id="Tracciato_4" data-name="Tracciato 4" d="M423.582,889.943,405.5,864.468a1.5,1.5,0,1,1,2.445-1.736l15.687,22.1,16.3-22.116a1.5,1.5,0,1,1,2.414,1.778Z" transform="translate(-138.754 -0.001)" fill="#c1eeff"/>
    <path id="Tracciato_5" data-name="Tracciato 5" d="M596.023,888.967a14.454,14.454,0,0,0-7.41-26.868H564.184V919.31a1.5,1.5,0,0,0,3,0V865.1h4.057v55.712h19.307a16.393,16.393,0,0,0,5.477-31.844Zm-7.41-23.869a11.462,11.462,0,1,1,0,22.924H574.238V865.1Zm1.934,52.715H574.238V891.02h16.308a13.4,13.4,0,0,1,0,26.791Z" transform="translate(-250.053 0)" fill="#c1eeff"/>
    <path id="Tracciato_6" data-name="Tracciato 6" d="M778.463,917.812H744.692V896.044h25.434a1.5,1.5,0,0,0,0-3H744.692v-4.162h25.434a1.5,1.5,0,0,0,0-3H744.692V865.1h33.771a1.5,1.5,0,0,0,0-3H741.694V920.81h36.769a1.5,1.5,0,0,0,0-3Z" transform="translate(-374.337 0)" fill="#c1eeff"/>
    <path id="Tracciato_7" data-name="Tracciato 7" d="M916.33,893.046H901.449v-4.162h14.182a13.392,13.392,0,1,0,0-26.784H891.4v57.212a1.5,1.5,0,1,0,3,0V865.1h3.735V919.31a1.5,1.5,0,0,0,3,0V896.044h13.222L924.543,919.9a1.5,1.5,0,1,0,2.757-1.178Zm-15.2-27.948h14.5a10.394,10.394,0,1,1,0,20.787h-14.5Z" transform="translate(-479.151 0)" fill="#c1eeff"/>
    <path id="Tracciato_8" data-name="Tracciato 8" d="M1085.283,917.811h-26.289V863.6a1.5,1.5,0,1,0-3,0v54.212h-4.055V863.6a1.5,1.5,0,1,0-3,0v57.211h36.341a1.5,1.5,0,1,0,0-3Z" transform="translate(-589.456 0)" fill="#c1eeff"/>
    <path id="Tracciato_9" data-name="Tracciato 9" d="M1615.667,862.1h-25.653V919.31a1.5,1.5,0,0,0,3,0V865.1h4.054v22.069h0V919.31a1.5,1.5,0,0,0,3,0V890.165h15.6a14.033,14.033,0,1,0,0-28.066Zm0,25.067h-15.6V865.1h15.6a11.034,11.034,0,1,1,0,22.069Z" transform="translate(-968.286 0)" fill="#c1eeff"/>
    <g id="Raggruppa_2" data-name="Raggruppa 2" transform="translate(492.175 864.722)">
      <path id="Tracciato_10" data-name="Tracciato 10" d="M1272.655,878.549a26.3,26.3,0,0,0-35.942-1.171l-.045-.05-18.659,18.659-17.385,17.385-.062.062a23.4,23.4,0,0,1-1.769,1.6l-6.448-6.8,7.695-4.471a3.68,3.68,0,1,0-1.026-1.551l-8.571,4.98h-8.9v-8.365a3.623,3.623,0,1,0-1.857,0v8.365h-12.037V881.183a23.071,23.071,0,0,1,25.4-5.359v7.742H1178.3a3.445,3.445,0,1,0,0,1.857h16.6v-8.732a23.115,23.115,0,0,1,5.652,4.155l.477.476h.017l6.852,6.852a4.319,4.319,0,1,0,2.278-2.317l-8.53-8.53-.045.05a26.3,26.3,0,1,0,1.258,38.353l17.447-17.447,13.733-13.733v5.123a3.43,3.43,0,1,0,1.857,0v-6.979l1.372-1.372h.019l.476-.476a23.026,23.026,0,0,1,32.322-.251v25.253l-7.116-7.243V887.638a3.278,3.278,0,1,0-1.857,0v11.728l3.364,3.424h-16a3.441,3.441,0,1,0,0,1.857H1266.3l3.785,3.852v5.195A23.038,23.038,0,0,1,1240.793,916h12.769a3.444,3.444,0,1,0,0-1.857h-15.068q-.377-.345-.741-.709l-7.958-7.958a4.32,4.32,0,1,0-2.317,2.278l7.916,7.916.061.061a26.3,26.3,0,1,0,37.2-37.181ZM1202.5,899.2a1.825,1.825,0,1,1-1.825,1.825A1.828,1.828,0,0,1,1202.5,899.2Zm-23.654-3.874a1.767,1.767,0,1,1,1.767,1.767A1.769,1.769,0,0,1,1178.844,895.323Zm-3.861-9.24a1.588,1.588,0,1,1,1.588-1.588A1.59,1.59,0,0,1,1174.984,886.083Zm38.9,3.736a2,2,0,1,1-2-2A2,2,0,0,1,1213.886,889.819Zm-52.678,7.326a22.929,22.929,0,0,1,4.581-13.776V910.92A22.928,22.928,0,0,1,1161.208,897.145Zm6.437,15.961v-4.059h22.913l6.739,7.107a23.038,23.038,0,0,1-29.652-3.048Zm68.9-20.131a1.573,1.573,0,1,1-1.573-1.573A1.575,1.575,0,0,1,1236.542,892.975Zm24.078-8.48a1.421,1.421,0,1,1,1.421,1.421A1.422,1.422,0,0,1,1260.62,884.495ZM1245.161,905.3a1.585,1.585,0,1,1,1.585-1.585A1.587,1.587,0,0,1,1245.161,905.3Zm11.718,8.18a1.588,1.588,0,1,1-1.588,1.588A1.59,1.59,0,0,1,1256.879,913.482Zm-33.041-9.72a2,2,0,1,1,2,2A2,2,0,0,1,1223.838,903.763Zm48.1,7.906V882.62a23,23,0,0,1,0,29.049Z" transform="translate(-1157.959 -870.847)" fill="#c1eeff"/>
    </g>
  </g>
</svg>
