<svg id="Livello_1" data-name="Livello 1" xmlns="http://www.w3.org/2000/svg" viewBox="0 0 1920 1920"><defs><style>.cls-1{fill:#263238;}.cls-2{fill:#c1eeff;}</style></defs><circle class="cls-1" cx="960" cy="960" r="960"/><path id="Icon_ionic-ios-warning" data-name="Icon ionic-ios-warning" class="cls-2" d="M883.63,421.78,385.43,1331c-31.51,56.82,10.41,126.3,76.23,126.3h996.69c65.55,0,107.46-69.48,76.24-126.3L1036.1,421.78C1003.19,362.14,916.55,362.14,883.63,421.78Zm124.52,419-7.74,262.08a40.56,40.56,0,0,1-40.54,39.36h0a40.57,40.57,0,0,1-40.55-39.36l-7.73-262.08A40.56,40.56,0,0,1,952.13,799H967.6A40.57,40.57,0,0,1,1008.15,840.78ZM959.87,1329c-30.1,0-53.73-22.79-53.73-51.76s23.63-51.76,53.73-51.76,53.73,22.78,53.73,51.76S990,1329,959.87,1329Z" transform="translate(0 0)"/></svg>