<svg id="Livello_1" data-name="Livello 1" xmlns="http://www.w3.org/2000/svg" viewBox="0 0 1920 1920"><defs><style>.cls-1{fill:#263238;}.cls-2{fill:#c1eeff;}</style></defs><circle class="cls-1" cx="960" cy="960" r="960"/><path class="cls-2" d="M1474.48,505.57,989.15,289.88a71.76,71.76,0,0,0-58.3,0L445.52,505.57a71.8,71.8,0,0,0-42.63,65.6V895.93c0,336.51,228,651.63,537.55,737.71a73,73,0,0,0,39.12,0c309.51-86.08,537.55-401.2,537.55-737.71V571.17A71.8,71.8,0,0,0,1474.48,505.57ZM665.58,899.72a33.23,33.23,0,0,1-32.83-38.32,346.22,346.22,0,0,1,109-202.46A32.81,32.81,0,0,1,787,660.26l.22.22a33.05,33.05,0,0,1-.91,47.74,280.5,280.5,0,0,0-87.93,163.27,33.24,33.24,0,0,1-32.76,28.23ZM1021.1,1241.1a67.38,67.38,0,0,1-47.82,39.18,58.13,58.13,0,0,1-13.28,1.33,66.91,66.91,0,0,1-66.75-66.14.26.26,0,0,1,.25-.28h132.34a.26.26,0,0,1,.25.28A66.71,66.71,0,0,1,1021.1,1241.1Zm204.57-59.38a.27.27,0,0,1-.27.27H694.6a.27.27,0,0,1-.27-.27v-32.83a.27.27,0,0,1,.08-.19l66.26-66.26a.27.27,0,0,0,.08-.19V916.32c0-102.21,54-187.17,149.24-209.83a.27.27,0,0,0,.2-.25V683.86a49.81,49.81,0,0,1,52.89-49.72c26.62,1.6,46.73,25,46.73,51.67v20.43a.27.27,0,0,0,.2.25c94.86,22.66,149.24,108.06,149.24,209.83v165.93a.27.27,0,0,0,.08.19l66.26,66.26a.27.27,0,0,1,.08.19Zm28.72-282h-.06a33.2,33.2,0,0,1-32.71-28.14,282.12,282.12,0,0,0-87.88-163.46,33,33,0,0,1-.9-47.51h0a33,33,0,0,1,45.61-1.36,348.27,348.27,0,0,1,108.7,202.14A33.16,33.16,0,0,1,1254.39,899.72Z" transform="translate(0 0)"/></svg>