<svg xmlns="http://www.w3.org/2000/svg" width="180" height="26.983" viewBox="0 0 180 26.983"><defs><style>.a{fill:#00b2e5;}.b{fill:#fff;}</style></defs><path class="a" d="M240.09,9.14a13.521,13.521,0,1,0,9.573,3.973A13.485,13.485,0,0,0,240.09,9.14Zm0,21.775c-5.523,0-8.033-4.85-8.033-8.289s2.51-8.289,8.033-8.289c5.844,0,8.033,5.146,8.033,8.389C248.118,26.14,245.623,30.915,240.09,30.915Zm16.6,4.765V14.8h-4.1V9.6h9.594V35.679Z" transform="translate(-116.236 -9.14)"/><path class="b" d="M32.506,36.132H47.462V30.911H38V25.589h9.464V20.367H38V15.251h9.464v-5.2H32.506ZM18.98,26.362c-1.386-3.585-6.321-16.312-6.321-16.312H6.74l10.5,26.082h3.449L31.145,10.05H25.3S20.366,22.777,18.98,26.362ZM77.923,10.05l-9.4,25-5.809-8.169c2.571-.643,6.1-2.721,6.1-8.128a8.972,8.972,0,0,0-2.51-6.411c-1.672-1.587-3.856-2.289-7.094-2.289h-8.45V36.132h5.493V26.96l6.527,9.153H73.881l2.008-5.4h8.57l2.008,5.4h5.859L82.451,10.05ZM57.669,22.476H56.249V15.251H58.97c3.208,0,4.348,1.807,4.348,3.514C63.318,19.67,63.318,22.476,57.669,22.476Zm20.047,3.2c.9-2.54,2.063-5.814,2.485-7.064l2.48,7.064Z" transform="translate(-6.74 -9.593)"/><path class="b" d="M350.422,15.251v-5.2H335.46V36.132h14.961V30.911h-9.469V25.589h9.469V20.367h-9.469V15.251Z" transform="translate(-170.422 -9.593)"/><path class="b" d="M186.671,14.346a7.775,7.775,0,0,1,5.97,2.982l.351.407h6.391l-.889-1.546a13.084,13.084,0,0,0-3.956-4.519,13.887,13.887,0,0,0-7.933-2.51,13.485,13.485,0,1,0,11.763,20.083l.838-1.476h-6.482l-.3.351a7.717,7.717,0,0,1-5.809,2.807,8.247,8.247,0,0,1-7.9-8.354A8.108,8.108,0,0,1,186.671,14.346Z" transform="translate(-89.587 -9.15)"/><path class="b" d="M303.226,10.05H301.8v5.2h1.4c6.18,0,7.832,4.965,7.832,7.887,0,7.029-5.523,7.772-7.9,7.772H301.8v5.221h1.3c4.288,0,7.5-1.2,10.1-3.771,2.008-1.953,3.319-5.643,3.319-9.2a14.731,14.731,0,0,0-2.651-8.249C311.525,11.677,307.925,10.05,303.226,10.05Z" transform="translate(-153.661 -9.593)"/></svg>